# xmcd CD database file
#
# Track frame offsets:
#	150
#	19707
#	36237
#	55725
#	72075
#	86325
#	105535
#	141972
#	154800
#	178200
#	195760
#	215710
#	228525
#	242250
#	261277
#	275102
#	291660
#	312447
#
# Disc length: 4420 seconds
#
# Revision: 3
# Processed by: cddbd v1.5.2PL0 Copyright (c) Steve Scherf et al.
# Submitted via: CDex 1.51
#
DISCID=0a114212
DTITLE=Varios - Carácter Latino
DYEAR=1997
DGENRE=Pop
TTITLE0=La Flaca (Jarabe de palo)
TTITLE1=Quiero tener tu presencia (Seguridad Social)
TTITLE2=Cuéntame un cuento (Celtas Cortos)
TTITLE3=Demasiado corazón (Willy Deville)
TTITLE4=No controles (Café Tacuba)
TTITLE5=Agarrate a mí, María (Los secretos)
TTITLE6=Muévete (Rubén Blades)
TTITLE7=Cien gaviotas (Duncan Dhu)
TTITLE8=El amor después del amor (Fito Paez)
TTITLE9=Mucho mejor (Los rodríguez)
TTITLE10=Mar de amores (Amparo Sandino)
TTITLE11=Al calor del amor en un bar (Gabinete Galigari)
TTITLE12=Speak up Mambo (Manhattan Transfer)
TTITLE13=Los años que nos quedan por vivir (Los lunes)
TTITLE14=Piel canela (Linda Ronstadt)
TTITLE15=Sabor de amor (Danza invisible)
TTITLE16=De pies a cabeza (Maná)
TTITLE17=Hey caramba (Compay Segundo)
EXTD=YEAR: 1997
EXTT0=
EXTT1=
EXTT2=
EXTT3=
EXTT4=
EXTT5=
EXTT6=
EXTT7=
EXTT8=
EXTT9=
EXTT10=
EXTT11=
EXTT12=
EXTT13=
EXTT14=
EXTT15=
EXTT16=
EXTT17=
PLAYORDER=
